<?xml version="1.0" encoding="UTF-8"?>
<svg version="1.1" xmlns="http://www.w3.org/2000/svg" width="500" height="500">
<path d="M0 0 C165 0 330 0 500 0 C500 165 500 330 500 500 C335 500 170 500 0 500 C0 335 0 170 0 0 Z " fill="#FEFEFE" transform="translate(0,0)"/>
<path d="M0 0 C0.99 0.495 0.99 0.495 2 1 C1.5153125 1.79277344 1.030625 2.58554688 0.53125 3.40234375 C-1.4003398 7.94059427 -1.53643671 11.68182516 -1.5 16.5625 C-1.49141968 17.891604 -1.49141968 17.891604 -1.48266602 19.24755859 C-0.99215597 37.41790044 10.30868969 50.64012985 22.85546875 62.7578125 C27.58394188 67.18597934 32.43579658 71.39489381 37.5 75.4375 C41.73909939 78.85096085 45.65574174 82.46882562 49.5 86.3125 C50.00466797 86.81644287 50.50933594 87.32038574 51.02929688 87.83959961 C56.3566201 93.24733867 56.3566201 93.24733867 58 96 C56.7090757 99.87277289 55.46052249 100.10812479 51.8984375 101.9609375 C50.85042969 102.51523438 49.80242187 103.06953125 48.72265625 103.640625 C47.61792969 104.21296875 46.51320313 104.7853125 45.375 105.375 C38.60602083 108.90874598 32.07490735 112.35243477 26 117 C22.31309608 115.50553115 20.5042867 113.47761573 18.0625 110.375 C17.27875 109.38757813 16.495 108.40015625 15.6875 107.3828125 C15.25953125 106.84043945 14.8315625 106.29806641 14.390625 105.73925781 C12.90906849 103.88627175 11.39608084 102.06284706 9.875 100.2421875 C4.42391825 93.69278972 -0.82374055 87.08791112 -5.5625 80 C-5.9555835 79.41379883 -6.34866699 78.82759766 -6.75366211 78.22363281 C-13.10893709 68.48871388 -15.98454184 59.54415591 -17 48 C-18.49365609 68.8005441 -10.58963899 83.10059827 2.81567383 98.68798828 C6.01454988 102.36676529 9.24596006 106.01669276 12.47558594 109.66845703 C13.78807111 111.16376909 15.08216567 112.67516575 16.375 114.1875 C17.10460937 115.02667969 17.83421875 115.86585938 18.5859375 116.73046875 C20 119 20 119 19.921875 121.08984375 C18.85232939 123.30597852 17.6225739 124.64309941 15.875 126.375 C5.77320259 137.72650431 3.76311416 149.39181468 3 164 C5.31 164 7.62 164 10 164 C9.9175 163.113125 9.835 162.22625 9.75 161.3125 C9.82908444 148.28992863 16.97185578 138.10896468 25.5 129 C35.55860971 119.33289306 47.73387576 112.95406796 59.92993164 106.39550781 C78.53938814 96.3597457 96.1637139 85.21581298 103.35546875 64.19140625 C104.69773347 57.54516214 104.2845837 50.74305269 104 44 C125.08597736 70.25274002 137.1322117 99.54935163 134.75 133.5703125 C133.65068488 143.62446536 130.53649024 153.92701952 126 163 C130.29 163.33 134.58 163.66 139 164 C139.33 162.35 139.66 160.7 140 159 C140.62428019 156.88933842 141.27168956 154.78543101 141.9375 152.6875 C143.45925876 147.81787197 144.83170911 142.96523626 146 138 C146.33 138 146.66 138 147 138 C147.48826849 146.9515889 145.65840528 155.22427207 144 164 C150.6 164 157.2 164 164 164 C165.0519325 192.05153322 153.90172108 219.43714352 135.4375 240.3125 C133.96627595 241.88248091 132.4875321 243.44546195 131 245 C130.37738281 245.68578125 129.75476563 246.3715625 129.11328125 247.078125 C118.55843227 258.31892853 103.37272436 267.59528169 89 273 C88.01 273 87.02 273 86 273 C86 278.28 86 283.56 86 289 C61.58 289 37.16 289 12 289 C12 283.72 12 278.44 12 273 C10.618125 272.649375 9.23625 272.29875 7.8125 271.9375 C-6.00414934 267.75358506 -19.30030049 258.59943234 -30 249 C-30 248.34 -30 247.68 -30 247 C-30.56332031 246.77828125 -31.12664062 246.5565625 -31.70703125 246.328125 C-43.73884134 239.35910382 -52.96919002 220.2579064 -58 208 C-58.34546875 207.25105469 -58.6909375 206.50210938 -59.046875 205.73046875 C-61.39287948 200.43391248 -62.90258475 194.99292476 -64.25 189.375 C-64.5130896 188.34717407 -64.5130896 188.34717407 -64.78149414 187.29858398 C-66.58902937 179.270867 -66 172.73057985 -66 164 C-45.21 163.67 -24.42 163.34 -3 163 C-8.61 158.71 -14.22 154.42 -20 150 C-34.68968272 136.6102892 -44.94230155 121.30121052 -47 101 C-47.1331127 97.37366547 -47.1397697 93.75342361 -47.125 90.125 C-47.13080078 88.71154297 -47.13080078 88.71154297 -47.13671875 87.26953125 C-47.12424016 78.24750769 -46.40769849 70.06995732 -43.5 61.5 C-43.23936768 60.73026855 -42.97873535 59.96053711 -42.71020508 59.16748047 C-34.24461414 35.2373609 -17.77810141 17.46861802 0 0 Z " fill="#41B93D" transform="translate(201,68)"/>
<path d="M0 0 C21.08597736 26.25274002 33.1322117 55.54935163 30.75 89.5703125 C28.43232775 110.76735663 18.43282145 129.32985647 2.41015625 143.25 C-10.29790766 153.03425371 -25.58983428 158.64115454 -40.35693359 164.52441406 C-59.24089978 172.13755035 -78.76222489 182.45651403 -87.3125 202 C-87.6528125 202.99 -87.6528125 202.99 -88 204 C-88.33 204 -88.66 204 -89 204 C-89.24182042 197.79801742 -88.44148575 192.49091563 -86.875 186.5 C-86.6483667 185.6248877 -86.4217334 184.74977539 -86.18823242 183.84814453 C-78.71971599 155.83420062 -63.08611537 128.1304571 -40 110 C-38.95168653 109.16423354 -37.9035229 108.32827912 -36.85546875 107.4921875 C-32.13294252 103.7451817 -27.39037852 100.02731141 -22.55859375 96.421875 C-9.35254152 86.54535569 1.55909177 75.99950241 7 60 C7.07646165 57.6679198 7.09143299 55.33154122 7 53 C6.814375 53.99966797 6.814375 53.99966797 6.625 55.01953125 C2.21262576 74.73732865 -15.9921557 86.18058001 -31.27734375 97.484375 C-42.156333 105.5422499 -52.54556947 114.29676867 -62 124 C-62.556875 124.50015625 -63.11375 125.0003125 -63.6875 125.515625 C-73.88001659 134.96836216 -81.34374449 147.39872191 -87 160 C-95.81489705 146.77765442 -96.49137374 127.42682741 -93.8125 112.3125 C-90.21920378 96.18406444 -79.70039826 84.28159882 -66.17578125 75.078125 C-59.97588228 71.18860243 -53.59663125 67.65330052 -47.1875 64.125 C-27.62441299 53.32885948 -8.33426059 42.67159372 -0.64453125 20.19140625 C0.69773347 13.54516214 0.2845837 6.74305269 0 0 Z " fill="#016939" transform="translate(305,112)"/>
<path d="M0 0 C0.33 0 0.66 0 1 0 C1.7257683 22.13593317 -7.2120945 43.77541356 -22 60 C-34.91781757 73.5575571 -52.90875994 80.5072952 -69.91796875 87.40625 C-91.73361985 96.27526994 -115.09933578 106.1325233 -125.4375 129.0625 C-125.97154455 130.36968018 -126.49770119 131.68029567 -127 133 C-127.33 133 -127.66 133 -128 133 C-127.65484736 118.81736425 -120.88821592 107.17577558 -111.4375 96.9375 C-97.79178817 84.06418695 -79.65760981 77.82144 -62.62109375 70.76953125 C-42.15462827 62.36935198 -42.15462827 62.36935198 -24.87890625 48.79296875 C-23 47 -23 47 -21 47 C-20.73703125 46.4328125 -20.4740625 45.865625 -20.203125 45.28125 C-18.90978636 42.82894556 -17.39876646 40.72806278 -15.75 38.5 C-7.44856629 26.71230931 -3.27364742 13.91300155 0 0 Z " fill="#026A38" transform="translate(347,206)"/>
<path d="M0 0 C11 0 11 0 13.62573242 1.8359375 C14.19654541 2.67382812 14.7673584 3.51171875 15.35546875 4.375 C15.99677734 5.27734375 16.63808594 6.1796875 17.29882812 7.109375 C17.92208984 8.06328125 18.54535156 9.0171875 19.1875 10 C19.85330078 10.95390625 20.51910156 11.9078125 21.20507812 12.890625 C22.83638194 15.23782474 24.42280023 17.6161083 26 20 C26.33 13.4 26.66 6.8 27 0 C31.29 0 35.58 0 40 0 C40 14.52 40 29.04 40 44 C29 44 29 44 25.15234375 40.38671875 C24.04398796 38.84609102 22.97268658 37.27821528 21.9375 35.6875 C21.38384766 34.90181641 20.83019531 34.11613281 20.25976562 33.30664062 C18.80265831 31.22632338 17.39202262 29.12417796 16 27 C15.34 26.01 14.68 25.02 14 24 C13.67 30.6 13.34 37.2 13 44 C8.71 44 4.42 44 0 44 C0 29.48 0 14.96 0 0 Z " fill="#44BA40" transform="translate(80,371)"/>
<path d="M0 0 C4.5291527 2.80481842 7.69122446 5.61421354 9.203125 10.85546875 C9.87778219 16.83938474 9.74611487 21.77718327 6.203125 26.85546875 C0.13718311 32.65767404 -4.76851929 34.33843753 -13.0078125 34.171875 C-18.60428221 33.53698138 -22.39252713 31.33183446 -26.234375 27.29296875 C-29.6919871 21.89909388 -29.36475667 16.06101625 -28.796875 9.85546875 C-26.77977011 5.2329367 -23.66866327 2.26974725 -19.33203125 -0.21875 C-13.12611014 -2.48501087 -6.1199991 -2.50441304 0 0 Z " fill="#43BA40" transform="translate(155.796875,382.14453125)"/>
<path d="M0 0 C3.96 0 7.92 0 12 0 C12 4.95 12 9.9 12 15 C13.32 14.34 14.64 13.68 16 13 C20.96351704 12.29560649 24.91404116 12.46689293 29.4375 14.6875 C32.81781714 17.7380301 34.79354645 20.26475425 35.34057617 24.86254883 C35.3170105 26.39431763 35.3170105 26.39431763 35.29296875 27.95703125 C35.2784668 29.62475586 35.2784668 29.62475586 35.26367188 31.32617188 C35.23853516 32.47666016 35.21339844 33.62714844 35.1875 34.8125 C35.16719727 36.56723633 35.16719727 36.56723633 35.14648438 38.35742188 C35.11120612 41.23847904 35.05740143 44.1192987 35 47 C31.04 47 27.08 47 23 47 C22.505 35.615 22.505 35.615 22 24 C19.69 24 17.38 24 15 24 C12.51942372 26.48057628 12.70980995 27.36192464 12.5859375 30.7890625 C12.52792969 32.20058594 12.52792969 32.20058594 12.46875 33.640625 C12.42234375 35.11789062 12.42234375 35.11789062 12.375 36.625 C12.31699219 38.11386719 12.31699219 38.11386719 12.2578125 39.6328125 C12.16337339 42.08822942 12.08059119 44.54408957 12 47 C8.04 47 4.08 47 0 47 C0 31.49 0 15.98 0 0 Z " fill="#43BA3F" transform="translate(299,368)"/>
<path d="M0 0 C9.57 0 19.14 0 29 0 C29 3.63 29 7.26 29 11 C23.72 11 18.44 11 13 11 C13 13.97 13 16.94 13 20 C17.95 20 22.9 20 28 20 C28 23.63 28 27.26 28 31 C23.05 31 18.1 31 13 31 C13 35.29 13 39.58 13 44 C8.71 44 4.42 44 0 44 C0 29.48 0 14.96 0 0 Z " fill="#42BA3E" transform="translate(342,371)"/>
<path d="M0 0 C3.96 0 7.92 0 12 0 C12 11.22 12 22.44 12 34 C9.36 34 6.72 34 4 34 C3.67 33.01 3.34 32.02 3 31 C2.030625 31.66 1.06125 32.32 0.0625 33 C-4.26298863 35.45169396 -8.12172195 35.87968949 -13 35 C-17.51411106 32.74294447 -19.77523348 30.48121801 -22 26 C-22.34057617 23.13745117 -22.34057617 23.13745117 -22.29296875 20.04296875 C-22.28330078 18.93115234 -22.27363281 17.81933594 -22.26367188 16.67382812 C-22.23853516 15.52333984 -22.21339844 14.37285156 -22.1875 13.1875 C-22.17396484 12.01767578 -22.16042969 10.84785156 -22.14648438 9.64257812 C-22.11120612 6.76152096 -22.05740143 3.8807013 -22 1 C-18.04 1 -14.08 1 -10 1 C-9.95101562 2.49273437 -9.90203125 3.98546875 -9.8515625 5.5234375 C-9.77654173 7.47397763 -9.7009936 9.42449753 -9.625 11.375 C-9.5940625 12.35984375 -9.563125 13.3446875 -9.53125 14.359375 C-9.49257812 15.30039062 -9.45390625 16.24140625 -9.4140625 17.2109375 C-9.3826416 18.08024902 -9.3512207 18.94956055 -9.31884766 19.84521484 C-9.18770567 22.20961794 -9.18770567 22.20961794 -7 24 C-5.02 24 -3.04 24 -1 24 C-0.67 16.08 -0.34 8.16 0 0 Z " fill="#44BA40" transform="translate(193,381)"/>
<path d="M0 0 C3.86822962 1.39532568 5.71633148 3.57449722 8 7 C8 8.32 8 9.64 8 11 C6.20866022 11.05391993 4.41686101 11.09275571 2.625 11.125 C1.62726563 11.14820313 0.62953125 11.17140625 -0.3984375 11.1953125 C-3 11 -3 11 -5 9 C-6.32 9 -7.64 9 -9 9 C-8.67 9.99 -8.34 10.98 -8 12 C-4.77645726 13.14195238 -1.51693302 13.91740299 1.80078125 14.7421875 C5.52824771 16.20768714 6.89028789 17.63780674 9 21 C9.47414213 24.87216075 9.40706735 27.86034694 7 31 C1.79203808 35.07579628 -2.56343197 35.62473151 -9.12109375 35.38671875 C-13.40782796 34.81088878 -15.59391188 33.68138852 -19 31 C-21.25709039 28.01481593 -22 26.75081172 -22 23 C-18.04 23 -14.08 23 -10 23 C-9.67 23.66 -9.34 24.32 -9 25 C-5.97065509 25.65772428 -5.97065509 25.65772428 -3 26 C-3.33 25.01 -3.66 24.02 -4 23 C-6.62368456 21.92784073 -6.62368456 21.92784073 -9.75 21.125 C-18.16081594 18.46157495 -18.16081594 18.46157495 -21 14 C-21.68057764 11.16233731 -21.7319032 8.8304069 -21 6 C-15.12113197 -1.27123151 -8.87362004 -0.74619078 0 0 Z " fill="#45BB42" transform="translate(284,381)"/>
<path d="M0 0 C3.3 0 6.6 0 10 0 C10 2.64 10 5.28 10 8 C12.64 8 15.28 8 18 8 C18 11.3 18 14.6 18 18 C15.36 18 12.72 18 10 18 C10.33 21.96 10.66 25.92 11 30 C13.31 30.66 15.62 31.32 18 32 C18 35.3 18 38.6 18 42 C7.31412104 42.62247839 7.31412104 42.62247839 2.4375 40.3125 C-1.26429235 36.80054315 -2.8905132 34.40873018 -3.29296875 29.23046875 C-3.27324235 27.88249835 -3.23777741 26.53467687 -3.1875 25.1875 C-3.17396484 24.49462891 -3.16042969 23.80175781 -3.14648438 23.08789062 C-3.11138845 21.39158735 -3.05758943 19.69568864 -3 18 C-4.98 18 -6.96 18 -9 18 C-9 14.7 -9 11.4 -9 8 C-5.535 7.505 -5.535 7.505 -2 7 C-1.34 4.69 -0.68 2.38 0 0 Z " fill="#48BC44" transform="translate(404,373)"/>
<path d="M0 0 C2.97 0 5.94 0 9 0 C9.66 0.66 10.32 1.32 11 2 C11.99 1.34 12.98 0.68 14 0 C17.35316337 -0.26402861 20.63058658 -0.08751723 24 0 C24 3.63 24 7.26 24 11 C20.58203125 11.24414062 20.58203125 11.24414062 17.1640625 11.48828125 C14.62078662 11.82990528 14.62078662 11.82990528 13 15 C12.63648496 17.02542148 12.63648496 17.02542148 12.5859375 19.23046875 C12.52792969 20.43413086 12.52792969 20.43413086 12.46875 21.66210938 C12.42234375 22.91217773 12.42234375 22.91217773 12.375 24.1875 C12.31699219 25.4549707 12.31699219 25.4549707 12.2578125 26.74804688 C12.16363721 28.83167524 12.08073325 30.91580753 12 33 C8.04 33 4.08 33 0 33 C0 22.11 0 11.22 0 0 Z " fill="#42BA3E" transform="translate(214,382)"/>
<path d="M0 0 C0.33 0 0.66 0 1 0 C2.58382575 10.38285768 -1.55143897 18.46117619 -7 27 C-9.72562348 30.67215818 -12.69507386 33.8457871 -16 37 C-16.83273437 37.81726563 -17.66546875 38.63453125 -18.5234375 39.4765625 C-23.92664014 44.5945521 -29.60987367 48.95077808 -35.71508789 53.16430664 C-41.06012181 56.90796457 -45.75551168 61.15764468 -50.4765625 65.65234375 C-56.09088708 70.87557761 -56.09088708 70.87557761 -59.140625 71.29296875 C-61.09375 71.1953125 -63.046875 71.09765625 -65 71 C-57.17089835 60.93401216 -46.79884434 53.50377434 -36.5625 46.0625 C-19.43876919 33.58968006 -3.94235855 21.94233773 0 0 Z " fill="#F4F8F6" transform="translate(312,161)"/>
<path d="M0 0 C3.96 0 7.92 0 12 0 C12 10.89 12 21.78 12 33 C8.04 33 4.08 33 0 33 C0 22.11 0 11.22 0 0 Z " fill="#40B93C" transform="translate(378,382)"/>
<path d="M0 0 C3.96 0 7.92 0 12 0 C12 10.89 12 21.78 12 33 C8.04 33 4.08 33 0 33 C0 22.11 0 11.22 0 0 Z " fill="#40B93C" transform="translate(244,382)"/>
<path d="M0 0 C2.4375 1.5625 2.4375 1.5625 4 4 C4.56783945 7.97487617 4.62340519 10.06489221 2.375 13.4375 C-0.75683492 15.49791771 -2.31544773 15.6767545 -6 15 C-8.9375 12.9375 -8.9375 12.9375 -11 10 C-11 6.45638757 -10.65850044 4.13408409 -8.875 1.0625 C-5.81547541 -0.6712306 -3.43182475 -0.42145216 0 0 Z " fill="#F7FCF7" transform="translate(149,391)"/>
<path d="M0 0 C2.375 1.625 2.375 1.625 4 4 C4.61195145 7.6717087 4.48706506 9.28813568 2.375 12.375 C-0.71186432 14.48706506 -2.3282913 14.61195145 -6 14 C-8.375 12.375 -8.375 12.375 -10 10 C-10.61195145 6.3282913 -10.48706506 4.71186432 -8.375 1.625 C-5.28813568 -0.48706506 -3.6717087 -0.61195145 0 0 Z " fill="#45BB41" transform="translate(387,363)"/>
<path d="M0 0 C2.375 1.625 2.375 1.625 4 4 C4.61195145 7.6717087 4.48706506 9.28813568 2.375 12.375 C-0.71186432 14.48706506 -2.3282913 14.61195145 -6 14 C-8.375 12.375 -8.375 12.375 -10 10 C-10.61195145 6.3282913 -10.48706506 4.71186432 -8.375 1.625 C-5.28813568 -0.48706506 -3.6717087 -0.61195145 0 0 Z " fill="#45BB41" transform="translate(253,363)"/>
<path d="M0 0 C2.375 0.1875 2.375 0.1875 5 1 C6.3125 3.5625 6.3125 3.5625 7 6 C4.69 5.34 2.38 4.68 0 4 C0 2.68 0 1.36 0 0 Z " fill="#EFF9EE" transform="translate(275,389)"/>
<path d="M0 0 C0.33 0 0.66 0 1 0 C1.12036664 5.77759884 0.8320582 11.27959989 0 17 C-0.99 16.34 -1.98 15.68 -3 15 C-2.01 10.05 -1.02 5.1 0 0 Z " fill="#19764B" transform="translate(347,206)"/>
<path d="M0 0 C0.33 0 0.66 0 1 0 C1.05410687 1.77049689 1.09284119 3.54146849 1.125 5.3125 C1.14820313 6.29863281 1.17140625 7.28476563 1.1953125 8.30078125 C1 11 1 11 -1 14 C-2.59789351 9.04653013 -1.28306814 4.86717585 0 0 Z " fill="#BCD7CB" transform="translate(312,161)"/>
</svg>
